<svg width="184" height="28" viewBox="0 0 184 28" fill="none" xmlns="http://www.w3.org/2000/svg">
<path d="M0.268908 24.5019L2.58824 24.1322V2.7204L0 2.38427L0.134454 0.0649414H16.3361L15.9328 6.55234L12.7059 6.4515L12.5042 2.38427H7.4958V12.0313H9.68067L10.1849 9.81284L12.437 9.88007V16.5355H10.1849L9.64706 14.2498H7.46218V24.4683H12.5042L12.9748 20.0313L16.3697 20.1322L16.6387 26.8885H0.168067L0.268908 24.5019Z" fill="black"/>
<path d="M18.1509 26.922L18.2517 24.9388L20.0669 24.5691V11.0565L17.9492 10.8548V8.83799L23.2601 8.06488L23.6635 9.20774V9.98085C24.9408 8.63631 26.487 7.82959 28.4702 7.82959C31.361 7.82959 33.5122 9.57749 33.5122 13.0397V24.5355L35.4282 24.9052L35.3274 26.8884H29.008V14.0481C29.008 12.1993 28.3358 11.1573 26.6551 11.1573C26.0837 11.1573 25.6803 11.2582 25.2433 11.4262C24.9744 11.6615 24.7055 11.9977 24.4702 12.3002V24.6027L26.3862 24.9724L26.2517 26.9556H18.1509V26.922Z" fill="black"/>
<path d="M119.697 26.922L119.764 24.9388L121.58 24.5691V11.0565L119.462 10.8548V8.83799L124.773 8.06488L125.176 9.20774V9.98085C126.454 8.63631 128 7.82959 129.983 7.82959C132.874 7.82959 135.025 9.57749 135.025 13.0397V24.5355L136.941 24.9052L136.84 26.8884H130.554V14.0481C130.554 12.1993 129.882 11.1573 128.201 11.1573C127.63 11.1573 127.227 11.2582 126.79 11.4262C126.521 11.6615 126.252 11.9977 126.017 12.3002V24.6027L127.933 24.9724L127.798 26.9556H119.697V26.922Z" fill="black"/>
<path d="M45.4455 26.5525C44.706 26.855 43.395 27.1911 41.6808 27.1911C39.4287 27.1911 37.3446 26.1827 37.3446 22.8886V11.0567L35.1934 10.7205L35.2942 8.36758L37.7144 8.26674L38.7564 4.6701L41.8488 4.53564V8.40119H45.1766L44.9413 10.7541L41.8824 11.0903V22.9222C41.8824 23.897 42.4203 24.5356 43.4287 24.5356H45.2438L45.4455 26.5525Z" fill="black"/>
<path d="M171.261 26.922L171.328 24.9724L173.042 24.5691V11.0565L171.025 10.8548V8.83797L176.538 8.06486L176.908 9.37579V9.81276C178.353 8.73713 180.303 8.03125 182.656 8.03125L183.462 8.73713L182.891 13.8464L179.866 13.7455L179.563 11.0228C178.857 11.1237 178.185 11.3254 177.614 11.7287V24.6027L179.53 25.006L179.395 26.9556H171.261V26.922Z" fill="black"/>
<path d="M92.1011 26.922L92.2019 24.9724L93.9162 24.5691V11.0565L91.8994 10.8548V8.83797L97.412 8.06486L97.7818 9.37579V9.81276C99.2271 8.73713 101.177 8.03125 103.53 8.03125L104.336 8.73713L103.698 13.8464L100.673 13.7455L100.37 11.0228C99.6641 11.1237 98.9918 11.3254 98.4204 11.7287V24.6027L100.336 25.006L100.202 26.9556H92.1011V26.922Z" fill="black"/>
<path d="M46.7896 26.922L46.8904 24.9724L48.6047 24.5691V11.0565L46.5879 10.8548V8.83797L52.1005 8.06486L52.4702 9.37579V9.81276C53.9156 8.73713 55.8652 8.03125 58.1845 8.03125L58.9913 8.73713L58.4198 13.8464L55.3946 13.7455L55.0921 11.0228C54.3862 11.1237 53.7139 11.3254 53.1425 11.7287V24.6027L55.0585 25.006L54.924 26.9556H46.7896V26.922Z" fill="black"/>
<path d="M64.2014 18.6867C64.2014 21.9135 65.6132 24.4009 68.4031 24.4009C69.8485 24.4009 70.9913 24.0984 72.3359 23.4598L73.109 25.2413C71.7308 26.3505 69.714 27.1909 67.193 27.1909C62.2854 27.1909 59.4619 22.9556 59.4619 17.5102C59.4619 12.8715 61.5123 7.7959 67.1258 7.7959C72.0333 7.7959 73.8821 12.3337 73.8821 17.3757L73.4115 18.5858L64.2014 18.6867ZM64.1342 16.5354L69.7812 16.2665C69.6804 14.0144 69.2098 10.4514 66.9913 10.4514C66.4535 10.4514 66.0838 10.5522 65.4115 10.8883C64.5039 12.4346 64.1342 15.2245 64.1342 16.5354Z" fill="black"/>
<path d="M142.32 18.6867C142.32 21.9135 143.731 24.4009 146.521 24.4009C147.967 24.4009 149.109 24.0984 150.454 23.4598L151.227 25.2413C149.849 26.3505 147.832 27.1909 145.311 27.1909C140.404 27.1909 137.58 22.9556 137.58 17.5102C137.58 12.8715 139.631 7.7959 145.244 7.7959C150.152 7.7959 152 12.3337 152 17.3757L151.53 18.5858L142.32 18.6867ZM142.252 16.5354L147.899 16.2665C147.799 14.0144 147.328 10.4514 145.109 10.4514C144.572 10.4514 144.202 10.5522 143.53 10.8883C142.622 12.4346 142.252 15.2245 142.252 16.5354Z" fill="black"/>
<path d="M109.513 18.6867C109.513 21.9135 110.925 24.4009 113.715 24.4009C115.16 24.4009 116.303 24.0984 117.647 23.4598L118.42 25.2413C117.042 26.3505 115.026 27.1909 112.505 27.1909C107.597 27.1909 104.773 22.9556 104.773 17.5102C104.773 12.8715 106.824 7.7959 112.437 7.7959C117.345 7.7959 119.194 12.3337 119.194 17.3757L118.723 18.5858L109.513 18.6867ZM109.446 16.5354L115.093 16.2665C114.992 14.0144 114.521 10.4514 112.303 10.4514C111.765 10.4514 111.395 10.5522 110.723 10.8883C109.815 12.4346 109.412 15.2245 109.446 16.5354Z" fill="black"/>
<path d="M164.706 26.9222L164.236 25.3087C162.992 26.4852 161.782 27.1911 159.899 27.1911C157.009 27.1911 154.42 25.7457 154.42 21.7457V10.586L152.303 10.3844V8.60286L158.42 7.89697L158.891 9.51042V21.2079C158.891 23.2583 159.731 24.3339 161.378 24.3339C161.849 24.3339 162.454 24.2667 162.992 24.065C163.294 23.7625 163.597 23.3928 163.832 23.023V10.586L161.647 10.3844V8.60286L167.832 7.89697L168.303 9.51042V24.5692L170.219 24.939L169.983 26.9222H164.706Z" fill="black"/>
</svg>
