<svg width="116" height="27" viewBox="0 0 116 27" fill="none" xmlns="http://www.w3.org/2000/svg">
<path d="M14.905 6.15642V20.6726C14.905 22.3054 15.5536 23.8713 16.7082 25.0259C17.8628 26.1804 19.4287 26.8291 21.0615 26.8291C22.6942 26.8291 24.2601 26.1804 25.4147 25.0259C26.5693 23.8713 27.2179 22.3054 27.2179 20.6726V6.15642C27.2179 4.52364 26.5693 2.95773 25.4147 1.80318C24.2601 0.648622 22.6942 0 21.0615 0C19.4287 0 17.8628 0.648622 16.7082 1.80318C15.5536 2.95773 14.905 4.52364 14.905 6.15642ZM19.3117 20.6726V6.15642C19.3091 5.92324 19.3552 5.69208 19.4472 5.4778C19.5392 5.26352 19.675 5.07085 19.8459 4.91217C20.0168 4.75349 20.219 4.63231 20.4395 4.55642C20.66 4.48053 20.8939 4.45161 21.1263 4.47151C21.3495 4.4643 21.5718 4.50296 21.7795 4.58508C21.9872 4.66721 22.1758 4.79106 22.3337 4.94897C22.4916 5.10689 22.6155 5.29552 22.6976 5.50321C22.7797 5.71089 22.8184 5.93321 22.8112 6.15642V20.6726C22.8045 21.1174 22.6248 21.5421 22.3103 21.8566C21.9957 22.1712 21.571 22.3509 21.1263 22.3575C20.8964 22.3662 20.6672 22.3295 20.4516 22.2495C20.236 22.1695 20.0382 22.0477 19.8697 21.8912C19.7012 21.7348 19.5651 21.5466 19.4694 21.3375C19.3737 21.1284 19.3201 20.9025 19.3117 20.6726ZM62.7307 0.324022H50.2883V4.73073H54.3061V26.3754H58.7128V4.73073H62.7307V0.324022ZM75.6916 0.324022V20.6726C75.6916 21.1195 75.5141 21.5481 75.1981 21.864C74.8821 22.18 74.4536 22.3575 74.0067 22.3575C73.5598 22.3575 73.1313 22.18 72.8153 21.864C72.4993 21.5481 72.3218 21.1195 72.3218 20.6726V0.324022H67.7855V20.6726C67.7855 22.3226 68.4409 23.905 69.6076 25.0717C70.7743 26.2384 72.3567 26.8939 74.0067 26.8939C75.6567 26.8939 77.2391 26.2384 78.4058 25.0717C79.5725 23.905 80.2279 22.3226 80.2279 20.6726V0.324022H75.6916ZM116 4.73073V0.324022H105.113V26.3754H116V21.9687H109.52V15.2291H113.667V10.8223H109.52V4.73073H116ZM46.1408 26.3754H41.4749L38.2346 14.0626C39.0431 13.9026 39.7703 13.4655 40.2909 12.8266C40.8114 12.1877 41.0927 11.3872 41.086 10.5631V6.54525C41.0913 6.30551 41.048 6.06718 40.9587 5.84463C40.8694 5.62208 40.736 5.41993 40.5664 5.25036C40.3968 5.0808 40.1947 4.94734 39.9721 4.85803C39.7496 4.76872 39.5112 4.72542 39.2715 4.73073H37.5866V26.3754H33.1799V0.324022H39.2715C40.8814 0.309586 42.4331 0.925017 43.5955 2.03894C44.7578 3.15286 45.4387 4.67701 45.4927 6.28603V10.4335C45.5519 11.5099 45.3603 12.5852 44.9329 13.5749C44.5056 14.5645 43.8542 15.4414 43.0302 16.1363L46.1408 26.3754ZM95.2626 0.324022V14.581L90.7263 0.324022H86.1899V26.3754H90.7263V13.6737L94.8737 26.3754H99.7989V0.324022H95.2626ZM0 0.712849V26.7642H4.66592V15.6179H8.94302V11.2112H4.66592V5.11955H11.4056V0.712849H0Z" fill="black"/>
</svg>
