<svg width="53" height="53" viewBox="0 0 53 53" fill="none" xmlns="http://www.w3.org/2000/svg">
<path d="M26.5017 13.2492C26.5017 5.93119 32.4329 0 39.7509 0C47.0688 0 53 5.93119 53 13.2492C53 20.5671 47.0688 26.4983 39.7509 26.4983C32.4329 26.4983 26.5017 20.5671 26.5017 13.2492ZM26.5017 13.2492C26.5017 5.93119 20.5671 0 13.2492 0C5.93119 0 0 5.93119 0 13.2492C0 20.5671 5.93119 26.4983 13.2492 26.4983C20.5671 26.4983 26.4983 20.5671 26.4983 13.2492H26.5017ZM13.2526 26.4983C5.93119 26.5017 0 32.4329 0 39.7509C0 47.0688 5.93119 53 13.2492 53C20.5671 53 26.4983 47.0688 26.4983 39.7509C26.4983 32.4329 20.5671 26.5017 13.2492 26.5017L13.2526 26.4983ZM39.7542 26.4983C32.4363 26.4983 26.5051 32.4295 26.5051 39.7475C26.5051 47.0654 32.4363 52.9966 39.7542 52.9966C47.0722 52.9966 53.0034 47.0654 53.0034 39.7475C53.0034 32.4295 47.0722 26.4983 39.7542 26.4983Z" fill="#00999E"/>
</svg>
