<svg width="53" height="47" viewBox="0 0 53 47" fill="none" xmlns="http://www.w3.org/2000/svg">
<path fill-rule="evenodd" clip-rule="evenodd" d="M7.32781 7.71056C9.14934 5.79345 11.5721 4.73709 14.1496 4.73709C16.7271 4.73709 19.1469 5.79345 20.9714 7.71056C22.781 9.61563 23.7841 12.1467 23.796 14.8403V14.8884H28.2992V14.8403C28.3111 12.1467 29.3112 9.61563 31.1238 7.71056C32.9453 5.79345 35.3681 4.73709 37.9456 4.73709C40.5231 4.73709 42.9429 5.79345 44.7674 7.71056C46.5889 9.62767 47.5919 12.1768 47.5919 14.8884H52.0922C52.0922 12.878 51.7172 10.9278 50.979 9.09196C50.2677 7.31931 49.2468 5.72724 47.9491 4.36089C46.6514 2.99454 45.1364 1.92012 43.4518 1.17073C41.7077 0.394256 39.8534 0 37.9456 0C36.0377 0 34.1835 0.394256 32.4393 1.17073C30.7547 1.92012 29.2427 2.99454 27.942 4.36089C27.2247 5.1163 26.5938 5.94393 26.0491 6.83176C25.5074 5.94393 24.8764 5.1163 24.1561 4.36089C22.8584 2.99454 21.3435 1.92012 19.6589 1.17073C17.9147 0.394256 16.0604 0 14.1526 0C12.2448 0 10.3905 0.394256 8.64634 1.17073C6.96172 1.92012 5.44973 2.99454 4.14907 4.36089C2.85138 5.72724 1.83049 7.31931 1.11914 9.09196C0.381002 10.9278 0.00598145 12.881 0.00598145 14.8884H4.50623C4.50623 12.1768 5.50926 9.62767 7.33079 7.71056H7.32781ZM47.9402 20.2183C46.6425 18.852 45.1275 17.7775 43.4429 17.0282C41.6988 16.2517 39.8445 15.8574 37.9367 15.8574C36.0288 15.8574 34.1746 16.2517 32.4304 17.0282C30.7458 17.7775 29.2338 18.852 27.9331 20.2183C27.2158 20.9737 26.5848 21.8014 26.0402 22.6892C25.4985 21.8014 24.8675 20.9737 24.1472 20.2183C22.8495 18.852 21.3346 17.7775 19.6499 17.0282C17.9058 16.2517 16.0515 15.8574 14.1437 15.8574C12.2358 15.8574 10.3816 16.2517 8.63743 17.0282C6.95281 17.7775 5.44082 18.852 4.14016 20.2183C2.84247 21.5847 1.82158 23.1767 1.11023 24.9494C0.372091 26.7852 -0.00292969 28.7385 -0.00292969 30.7458H4.49732C4.49732 28.0342 5.50035 25.4851 7.32188 23.568C9.14341 21.6509 11.5662 20.5945 14.1437 20.5945C16.7212 20.5945 19.141 21.6509 20.9655 23.568C22.7751 25.4731 23.7781 28.0041 23.7901 30.6977V30.7458H28.2933V30.6977C28.3052 28.0041 29.3052 25.4731 31.1178 23.568C32.9394 21.6509 35.3621 20.5945 37.9396 20.5945C40.5172 20.5945 42.9369 21.6509 44.7614 23.568C46.5859 25.4851 47.586 28.0342 47.586 30.7458H52.0863C52.0863 28.7354 51.7112 26.7852 50.9731 24.9494C50.2617 23.1767 49.2409 21.5847 47.9432 20.2183H47.9402ZM43.4429 32.8826C45.1275 33.632 46.6425 34.7065 47.9402 36.0728H47.9432C49.2409 37.4392 50.2617 39.0312 50.9731 40.8039C51.7112 42.6397 52.0863 44.5899 52.0863 46.6003H47.586C47.586 43.8887 46.583 41.3396 44.7614 39.4225C42.9369 37.5054 40.5172 36.449 37.9396 36.449C35.3621 36.449 32.9394 37.5054 31.1178 39.4225C29.3052 41.3275 28.3052 43.8586 28.2933 46.5522V46.6003H23.7901V46.5522C23.7781 43.8586 22.7751 41.3275 20.9655 39.4225C19.141 37.5054 16.7212 36.449 14.1437 36.449C11.5662 36.449 9.14341 37.5054 7.32188 39.4225C5.50035 41.3396 4.49732 43.8887 4.49732 46.6003H-0.00292969C-0.00292969 44.5929 0.372091 42.6397 1.11023 40.8039C1.82158 39.0312 2.84247 37.4392 4.14016 36.0728C5.44082 34.7065 6.95281 33.632 8.63743 32.8826C10.3816 32.1062 12.2358 31.7119 14.1437 31.7119C16.0515 31.7119 17.9058 32.1062 19.6499 32.8826C21.3346 33.632 22.8495 34.7065 24.1472 36.0728C24.8675 36.8282 25.4985 37.6558 26.0402 38.5437C26.5848 37.6558 27.2158 36.8282 27.9331 36.0728C29.2338 34.7065 30.7458 33.632 32.4304 32.8826C34.1746 32.1062 36.0288 31.7119 37.9367 31.7119C39.8445 31.7119 41.6988 32.1062 43.4429 32.8826Z" fill="#00999E"/>
</svg>
