<svg width="82" height="29" viewBox="0 0 82 29" fill="none" xmlns="http://www.w3.org/2000/svg">
<path d="M0 6.51231H3.57368V21.5807H0V27.5492H19.1211V21.5807H15.5105V6.51231H19.1211V0.0649414H0V6.51231Z" fill="black"/>
<path d="M48.5583 21.5809V13.6598C48.5583 8.61247 44.8741 6.77037 40.3057 6.77037C37.0636 6.77037 34.5952 7.65458 32.4583 10.123C32.3109 10.3072 32.1267 10.5283 31.9057 10.7125V6.54932H20.1162V12.5546H22.8057V21.5809H20.1162V27.5862H35.0741V21.5809H32.2373V16.3862C32.2373 14.1756 33.8952 12.5546 36.1057 12.5546C37.8373 12.5546 39.2004 13.4019 39.2004 15.2809V21.5441H36.4373V27.5493H51.0636V21.6546C51.0636 21.6177 51.0267 21.5809 51.0267 21.5441H48.5583V21.5809Z" fill="black"/>
<path d="M74.8634 19.8125H67.0897H66.8318C66.8318 22.023 65.2107 23.0546 63.4055 23.0546C59.9423 23.0546 59.6476 20.1441 59.6476 17.3809V17.3073C59.6476 14.5441 59.9055 11.6336 63.4055 11.6336C66.1318 11.6336 66.6107 13.9915 66.6844 16.2388L74.7528 15.3546C73.9055 7.13884 65.8002 6.62305 63.7739 6.62305C63.4792 6.62305 63.3318 6.62305 63.3318 6.62305C56.6634 6.62305 50.1055 9.90199 50.1055 17.3441C50.1055 18.9283 50.4002 20.3283 50.9528 21.5441H50.9897V21.6546C52.9792 26.0757 58.137 28.0652 63.3318 28.0652C67.5686 28.0652 73.5002 27.0336 74.8265 20.5125L74.8634 19.8125Z" fill="black"/>
<path d="M77.6268 27.6598C79.4987 27.6598 81.0162 26.1423 81.0162 24.2703C81.0162 22.3984 79.4987 20.8809 77.6268 20.8809C75.7548 20.8809 74.2373 22.3984 74.2373 24.2703C74.2373 26.1423 75.7548 27.6598 77.6268 27.6598Z" fill="black"/>
</svg>
