<svg width="53" height="48" viewBox="0 0 53 48" fill="none" xmlns="http://www.w3.org/2000/svg">
<path d="M50.9951 0H24.4199C23.3168 0 22.415 0.90177 22.415 2.00493V11.209H13.2109C12.1078 11.209 11.206 12.1108 11.206 13.2139V22.418H2.00493C0.90177 22.418 0 23.3198 0 24.4229V45.9632C0 47.0664 0.90177 47.9681 2.00493 47.9681H28.5801C29.6832 47.9681 30.585 47.0664 30.585 45.9632V36.7591H39.7891C40.8922 36.7591 41.794 35.8574 41.794 34.7542V25.5501H50.9981C52.1012 25.5501 53.003 24.6484 53.003 23.5452V2.00493C53.003 0.90177 52.1012 0 50.9981 0H50.9951Z" fill="#00999E"/>
</svg>
