<svg width="139" height="80" viewBox="0 0 139 80" fill="none" xmlns="http://www.w3.org/2000/svg">
<g clip-path="url(#clip0_10444_312)">
<path d="M136.159 60.4965C136.138 56.8057 136.127 53.1046 136.106 49.4138C133.154 49.0052 128.701 48.228 125.759 47.8291" stroke="black" stroke-width="3" stroke-miterlimit="10" stroke-linecap="round"/>
<path d="M136.159 60.4965C136.138 56.8057 136.127 53.1046 136.106 49.4138C133.154 49.0052 128.701 48.228 125.759 47.8291" stroke="#00999E" stroke-width="3" stroke-miterlimit="10" stroke-linecap="round"/>
<path d="M135.108 51.2316C119.615 69.2366 96.6928 75.6925 73.4707 64.9702C67.0977 62.0252 56.9965 55.5418 52.4394 49.8656C47.5712 43.7878 45.228 36.0296 44.6546 28.6026C44.0388 20.7266 45.3798 12.7065 49.8361 7.03119C50.7546 5.86536 51.8748 4.76398 53.3591 4.53288C56.7357 3.99936 59.7255 7.96826 61.1124 11.4913C65.6937 23.1691 63.3996 36.5676 55.4968 44.249C50.5563 49.0473 43.5998 51.4605 36.3916 51.2596C29.8042 51.0816 23.5208 48.4842 18.405 44.324C13.6576 40.4638 6.76047 33.7218 2.86226 24.7061" stroke="black" stroke-width="3" stroke-miterlimit="10" stroke-linecap="round"/>
<path d="M135.108 51.2316C119.615 69.2366 96.6928 75.6925 73.4707 64.9702C67.0977 62.0252 56.9965 55.5418 52.4394 49.8656C47.5712 43.7878 45.228 36.0296 44.6546 28.6026C44.0388 20.7266 45.3798 12.7065 49.8361 7.03119C50.7546 5.86536 51.8748 4.76398 53.3591 4.53288C56.7357 3.99936 59.7255 7.96826 61.1124 11.4913C65.6937 23.1691 63.3996 36.5676 55.4968 44.249C50.5563 49.0473 43.5998 51.4605 36.3916 51.2596C29.8042 51.0816 23.5208 48.4842 18.405 44.324C13.6576 40.4638 6.76047 33.7218 2.86226 24.7061" stroke="#00999E" stroke-width="3" stroke-miterlimit="10" stroke-linecap="round"/>
</g>
<defs>
<clipPath id="clip0_10444_312">
<rect width="136.352" height="76.0514" fill="white" transform="matrix(0.999618 -0.027635 0.0273685 0.999625 0.320312 3.93115)"/>
</clipPath>
</defs>
</svg>
