<svg width="49" height="40" viewBox="0 0 49 40" fill="none" xmlns="http://www.w3.org/2000/svg">
<path d="M49 40H0.0434783C0.04 39.0884 0.0373913 38.1763 0.0317391 37.2646C0.0313043 37.1803 0.0108696 37.0954 0 37.011C0 28.8792 0 20.7475 0 12.6157C0.659565 12.268 1.31783 11.9168 1.97957 11.5726C4.96696 10.0179 7.95522 8.46496 10.943 6.91069C14.6052 5.00566 18.267 3.09975 21.9283 1.19295C22.6857 0.798233 23.4404 0.397798 24.1961 0C24.2252 0 24.2539 0 24.283 0C24.5743 0.155603 24.863 0.317799 25.1578 0.465929C28.4148 2.10108 31.673 3.73403 34.9304 5.36785C39.5283 7.67376 44.1257 9.98187 48.7265 12.2821C48.9222 12.3796 48.9913 12.4856 48.9909 12.7102C48.9844 21.7048 48.9852 30.6994 48.9857 39.6936C48.9857 39.7956 48.9948 39.8976 49 39.9996V40ZM6.29304 19.5901C6.29304 21.3699 6.29261 23.1496 6.29391 24.9294C6.29391 25.0903 6.29783 25.252 6.31739 25.4111C6.4313 26.3373 6.96 26.9909 7.68913 27.5012C8.7087 28.2146 9.86087 28.5847 11.0691 28.7918C12.6204 29.0577 14.1796 29.0718 15.7383 28.8748C16.9304 28.7245 18.0778 28.4116 19.127 27.7927C20.33 27.0828 20.9639 26.0656 20.9526 24.6134C20.9252 21.0833 20.9457 17.5528 20.9404 14.0223C20.94 13.7005 21.0657 13.4724 21.33 13.3168C21.4604 13.2399 21.5991 13.1744 21.7409 13.1212C22.3283 12.9018 22.3391 12.8772 22.3483 12.2614C22.3513 12.0443 22.2617 11.9511 22.0687 11.926C21.9974 11.9168 21.9248 11.9111 21.8526 11.9111C20.2096 11.9102 18.5665 11.9098 16.9235 11.9111C16.4257 11.9111 16.377 11.9779 16.357 12.472C16.3457 12.7528 16.4587 12.9141 16.6996 13.0126C16.887 13.0891 17.0778 13.159 17.26 13.2464C17.6048 13.4117 17.7735 13.6733 17.7722 14.0807C17.7622 16.864 17.7674 19.6473 17.767 22.4305C17.767 23.2947 17.7783 24.1593 17.7578 25.023C17.7335 26.0516 17.1874 26.8256 16.2313 27.1487C15.1109 27.5276 13.9674 27.5408 12.8383 27.19C11.9191 26.9043 11.4322 26.2085 11.4317 25.2547C11.4296 21.4973 11.4317 17.74 11.4291 13.9827C11.4291 13.7348 11.5143 13.5326 11.7104 13.3968C11.8696 13.2864 12.0452 13.1928 12.2261 13.1243C12.8152 12.9005 12.8322 12.8755 12.8343 12.2429C12.8348 12.0487 12.7574 11.9564 12.58 11.9322C12.4943 11.9203 12.4074 11.912 12.3213 11.912C10.0413 11.9111 7.7613 11.9106 5.48087 11.9128C5.3587 11.9128 5.23391 11.9243 5.11609 11.9537C5.04478 11.9713 4.95913 12.0175 4.92261 12.0777C4.76044 12.3454 4.9213 12.8702 5.20261 13.0025C5.41174 13.101 5.63435 13.1717 5.84 13.2763C6.14957 13.4337 6.30044 13.6825 6.29826 14.0526C6.28783 15.8983 6.29348 17.744 6.29348 19.5897L6.29304 19.5901ZM27.03 26.4309C27.03 27.0828 27.0335 27.7346 27.0278 28.3865C27.0257 28.6107 27.1248 28.7403 27.3391 28.7562C27.9587 28.801 28.5757 28.8397 29.1943 28.6942C29.483 28.6265 29.7978 28.6102 30.0926 28.6454C30.7017 28.7184 31.3035 28.8564 31.9117 28.9403C33.4304 29.1504 34.943 29.1153 36.4374 28.7483C37.6817 28.4428 38.8439 27.9487 39.8178 27.0854C41.2565 25.8107 41.4909 23.8973 40.3735 22.3307C40.0435 21.8683 39.6283 21.4503 39.1913 21.0868C37.9839 20.0815 36.5943 19.3668 35.2174 18.6336C34.2522 18.1198 33.2948 17.5893 32.3522 17.0337C31.7752 16.6934 31.2578 16.2644 30.8852 15.6864C30.3809 14.9053 30.507 14.1884 31.2513 13.6403C31.4078 13.5251 31.5774 13.4161 31.757 13.3462C32.7239 12.9695 33.7078 12.9313 34.683 13.2944C35.6452 13.6526 36.237 14.4042 36.6622 15.3132C36.7765 15.5576 36.8839 15.8077 37.027 16.035C37.0926 16.1392 37.2322 16.253 37.3439 16.2592C37.8413 16.2873 38.3409 16.2926 38.8387 16.2759C39.1122 16.2666 39.1717 16.1721 39.1722 15.8952C39.173 14.7818 39.173 13.6684 39.1722 12.555C39.1722 12.2763 39.1026 12.1537 38.8322 12.1471C38.2552 12.1339 37.6704 12.115 37.1026 12.1959C36.7148 12.2513 36.35 12.2856 35.9717 12.1876C34.4261 11.7862 32.8661 11.661 31.2865 11.9511C30.0639 12.1757 28.9374 12.6232 27.977 13.4412C26.7696 14.4693 26.4383 16.053 27.1609 17.3752C27.5357 18.0609 28.0743 18.6139 28.7217 19.0275C29.5765 19.5734 30.4543 20.0859 31.3452 20.5694C32.7017 21.3061 34.0935 21.9804 35.3622 22.8701C35.787 23.1677 36.2013 23.5048 36.543 23.8942C37.3061 24.7637 37.3048 25.9057 36.5965 26.6854C36.3035 27.0081 35.9574 27.2551 35.5587 27.4274C34.7452 27.7786 33.8904 27.8217 33.0239 27.7738C31.2857 27.6779 30.0309 26.7197 29.47 25.0635C29.3857 24.8147 29.3017 24.5654 29.2174 24.3167C29.1465 24.1079 29.0074 23.9861 28.7839 23.9848C28.3504 23.9817 27.9157 23.9633 27.4835 23.9874C27.1326 24.0072 27.0309 24.1461 27.0296 24.4969C27.0278 25.1413 27.0291 25.7861 27.0296 26.4305L27.03 26.4309ZM27.3126 32.7082C27.3861 32.775 27.4174 32.8291 27.4552 32.8335C27.6935 32.8629 27.7287 33.0155 27.7278 33.2243C27.7222 34.4616 27.723 35.6994 27.7274 36.9367C27.7278 37.12 27.6909 37.2515 27.4874 37.2866C27.443 37.2941 27.407 37.3486 27.367 37.3816C27.4113 37.4044 27.4557 37.4471 27.5004 37.4475C27.9417 37.4523 28.3835 37.4523 28.8248 37.4475C28.8726 37.4471 28.92 37.4093 28.9678 37.3886C28.9291 37.3543 28.8948 37.2976 28.8517 37.2901C28.6322 37.2519 28.5857 37.1139 28.587 36.9104C28.593 35.8488 28.5896 34.7869 28.5904 33.7249C28.5904 33.6642 28.5987 33.6036 28.6057 33.5056C29.7343 34.8387 30.8361 36.1407 31.9483 37.4545C33.0735 36.1376 34.177 34.8466 35.2974 33.5355C35.3144 33.5944 35.3252 33.6141 35.3252 33.6339C35.3265 34.7614 35.3252 35.8893 35.3287 37.0167C35.3291 37.1816 35.2439 37.2479 35.0996 37.2844C35.0504 37.2967 35.0126 37.3561 34.97 37.3939C35.0187 37.4123 35.0674 37.4471 35.1161 37.4475C35.5791 37.4515 36.0422 37.4515 36.5057 37.4475C36.5557 37.4475 36.6057 37.4145 36.6557 37.3965C36.6135 37.3578 36.577 37.2967 36.5287 37.2853C36.3648 37.2462 36.2778 37.1614 36.2778 36.9824C36.28 35.7011 36.28 34.4194 36.2778 33.1381C36.2778 32.9821 36.347 32.8941 36.4904 32.8498C36.5526 32.8304 36.61 32.7939 36.6691 32.7649C36.6626 32.7491 36.6557 32.7328 36.6491 32.717H34.5426C34.5378 32.7363 34.533 32.7557 34.5283 32.7746C34.5726 32.7988 34.6148 32.8326 34.6622 32.8458C34.8348 32.8941 34.8457 32.9851 34.7404 33.1135C34.7174 33.1416 34.6939 33.1697 34.6704 33.1974C33.8922 34.113 33.1139 35.0286 32.3352 35.9438C32.233 36.0638 32.1278 36.1816 32.0126 36.3139C31.0509 35.1864 30.1043 34.0757 29.1461 32.9522C29.2752 32.8748 29.3691 32.819 29.4635 32.7627C29.4557 32.7438 29.4478 32.7254 29.44 32.7065H27.3135L27.3126 32.7082ZM18.0287 32.7025C18.0213 32.7188 18.0143 32.7346 18.007 32.7509C18.0426 32.7799 18.0752 32.8282 18.1148 32.8348C18.3348 32.8704 18.3796 33.0075 18.3783 33.2124C18.3713 34.4357 18.3713 35.659 18.3783 36.8822C18.3796 37.0967 18.3543 37.2603 18.1048 37.295C18.073 37.2994 18.0496 37.3613 18.0222 37.3965C18.0574 37.4145 18.0909 37.4418 18.1283 37.4479C18.1848 37.4567 18.2439 37.451 18.3017 37.451C19.8074 37.451 21.3135 37.458 22.8191 37.4471C23.2883 37.4435 23.7591 37.4123 24.2252 37.3578C24.7417 37.2972 25.2335 37.1455 25.6065 36.7438C25.9357 36.3895 25.9661 35.8765 25.6374 35.5315C25.4687 35.3543 25.2291 35.2405 25.01 35.1205C24.88 35.0493 24.727 35.022 24.583 34.9746C24.7896 34.8704 24.9917 34.7873 25.1739 34.6717C25.4387 34.5034 25.6091 34.2656 25.5926 33.9284C25.5687 33.4427 25.2487 33.193 24.8609 33.0067C24.3948 32.7825 23.8935 32.7043 23.3843 32.7012C21.6617 32.6911 19.9387 32.6919 18.2161 32.6898C18.1539 32.6898 18.0917 32.6985 18.03 32.7034L18.0287 32.7025ZM9.87435 32.7012C9.86478 32.721 9.85565 32.7407 9.84609 32.761C9.88609 32.7873 9.92304 32.8308 9.96609 32.8374C10.1848 32.8708 10.2396 33.0093 10.2391 33.2119C10.2352 34.4493 10.2357 35.6862 10.2387 36.9235C10.2391 37.1143 10.193 37.2523 9.98087 37.2875C9.93696 37.295 9.90043 37.3495 9.86043 37.3824C9.90522 37.4053 9.94783 37.4383 9.99522 37.4479C10.0509 37.4594 10.1104 37.451 10.1683 37.451C12.1939 37.451 14.2196 37.451 16.2452 37.451C16.4391 37.451 16.6378 37.4277 16.7717 37.6308C16.797 37.6686 16.8948 37.6576 16.973 37.6712V36.7411C16.8913 36.7587 16.7965 36.7504 16.7678 36.7904C16.6348 36.9754 16.4465 36.9662 16.2583 36.9662C14.6448 36.9666 13.0317 36.9662 11.4183 36.9662H11.203C11.1922 36.9183 11.1809 36.891 11.1809 36.8633C11.1796 35.6189 11.1804 34.3746 11.1778 33.1297C11.1778 32.9719 11.2526 32.8898 11.3957 32.8471C11.4543 32.83 11.5057 32.7882 11.5604 32.7574C11.5522 32.7385 11.5435 32.7192 11.5352 32.7003H9.87391L9.87435 32.7012ZM42.587 29.0344C42.8148 28.9724 43.0548 28.939 43.2687 28.8441C44.143 28.4564 44.3648 27.4116 43.7209 26.7738C43.2 26.2582 42.3087 26.1615 41.6978 26.5628C41.2591 26.8507 41.0091 27.2481 41.0743 27.7957C41.1574 28.4916 41.8035 29.0036 42.587 29.0344ZM23.2113 26.3083C23.0617 26.3303 22.9065 26.3338 22.7635 26.3777C22.2478 26.5369 21.8543 26.8428 21.7378 27.4019C21.6287 27.9258 21.8235 28.35 22.2357 28.6744C22.7887 29.11 23.6374 29.1091 24.1983 28.6744C24.9478 28.0938 24.9109 27.0951 24.1191 26.5742C23.8443 26.3936 23.5413 26.3122 23.2113 26.3078V26.3083ZM39.0626 31.0172C38.5957 31.0243 38.213 31.1838 38.0022 31.6361C37.773 32.1267 37.9139 32.7065 38.3291 33.0137C38.7561 33.3297 39.5148 33.3029 39.89 32.9588C40.2409 32.637 40.3517 32.1451 40.1752 31.6942C40.0035 31.2559 39.6022 31.012 39.063 31.0172H39.0626Z" fill="black"/>
<path d="M19.3509 35.1855C20.8165 35.2102 22.2617 35.2282 23.707 35.2629C24.0343 35.2708 24.3461 35.3763 24.6152 35.5811C25.017 35.8875 25.017 36.3965 24.5787 36.6493C24.3357 36.7895 24.0426 36.8576 23.763 36.9126C23.51 36.9622 23.2452 36.9618 22.9857 36.9627C21.8139 36.9679 20.6422 36.9662 19.4709 36.9662C19.4357 36.9662 19.4 36.9609 19.3513 36.957V35.1855H19.3509Z" fill="black"/>
<path d="M19.343 33.1829C19.3922 33.1755 19.45 33.1588 19.5078 33.1592C20.7722 33.1684 22.037 33.1649 23.3009 33.2001C23.6309 33.2093 23.9665 33.3152 24.283 33.4251C24.5143 33.5051 24.6839 33.6946 24.68 33.9733C24.6757 34.2533 24.4991 34.4343 24.2626 34.502C23.9122 34.6027 23.547 34.7003 23.1861 34.7082C21.9435 34.735 20.7 34.7223 19.4565 34.724C19.4222 34.724 19.3878 34.717 19.343 34.7121V33.1829Z" fill="black"/>
<path d="M39.0783 31.1658C39.6909 31.1693 40.0965 31.5636 40.0891 32.1478C40.0822 32.6968 39.6609 33.0845 39.0726 33.084C38.477 33.0832 38.0578 32.6849 38.0591 32.1205C38.06 31.5583 38.4826 31.1623 39.0783 31.1658ZM39.3643 32.2269C39.6383 32.0761 39.7178 31.9509 39.6596 31.7421C39.5935 31.5043 39.3957 31.4766 39.193 31.4735C38.963 31.47 38.7335 31.4726 38.5109 31.4726V32.7667H38.7283V32.2287C39.1913 32.1232 39.2609 32.339 39.4252 32.7649H39.7065C39.5887 32.5794 39.4813 32.4111 39.3648 32.2273L39.3643 32.2269Z" fill="black"/>
<path d="M38.72 32.0374V31.6533C38.9209 31.6533 39.1152 31.6379 39.3043 31.6616C39.3704 31.67 39.4791 31.7829 39.4713 31.8326C39.4596 31.9078 39.3704 32.0181 39.3013 32.0282C39.1187 32.0555 38.9296 32.0374 38.7196 32.0374H38.72Z" fill="black"/>
</svg>
