<svg width="50" height="29" viewBox="0 0 50 29" fill="none" xmlns="http://www.w3.org/2000/svg">
<path d="M1.96875 3.9165C1.44531 1.54932 1.32813 1.14307 0.5625 0.947754L0 0.791504V0.229004H7.10938V0.791504L6.50781 0.908691C5.22656 1.18994 5.34375 2.47119 5.70313 4.19775L8.875 19.9399L11.2031 7.40869L10.3594 3.11182C10.0391 1.58838 9.91406 1.104 9.11719 0.900879L8.59375 0.791504V0.229004H15.9453V0.791504L15.0625 0.955566C13.7344 1.19775 13.9375 2.64307 14.2578 4.20557L17.3125 19.9478L20.3281 5.04932C20.8906 1.95557 20.6094 1.19775 19.4063 0.955566L18.5625 0.791504V0.229004H23.6641V0.791504L23.1016 0.994629C22.2969 1.27588 22.0938 2.0415 21.5391 4.68994L16.6406 28.0649H15.5938L11.8203 9.83057L8.40625 28.0649H7.07813L1.96875 3.9165ZM30.1563 28.0571C27.8281 28.0571 27.0234 26.4478 26.2578 26.4478C25.8125 26.4478 25.2969 26.5649 24.8906 27.8931H24.4063V18.7368H25.0078C25.4922 23.9165 27.4141 27.1665 30.1094 27.1665C31.9141 27.1665 33.1641 25.5181 33.1641 22.5493C33.1641 16.2837 24.2109 13.5962 24.2109 6.65088C24.2109 2.9165 26.1016 0.0649414 29.5078 0.0649414C31.7188 0.0649414 32.1563 1.51025 33.0781 1.51025C33.6016 1.51025 33.9609 1.11182 34.1641 0.229004H34.6484V9.38525H34.0469C33.5625 4.76807 32.3594 0.955566 29.4688 0.955566C27.4609 0.955566 27.1016 2.96338 27.1016 4.33057C27.1016 10.3149 36.0547 12.3618 36.0547 20.7134C36.0625 24.9634 33.7344 28.0571 30.1563 28.0571ZM47.5469 21.5103C47.5469 25.8071 45.375 28.0571 42.0469 28.0571C39.0313 28.0571 37.2656 25.604 37.3047 22.9165C37.3438 20.8306 38.8672 19.7837 40.1172 19.9478C41 20.0649 41.8828 20.7134 41.7656 22.1196C41.6484 24.1274 39.4766 24.0493 39.3984 25.2915C39.3203 26.0571 40.3203 27.1821 41.6094 27.1821C43.8594 27.1821 43.8594 24.3306 43.8594 22.1587V2.67432C43.8594 1.54932 43.5 1.229 42.6172 1.02588L41.6172 0.783691V0.229004H49.5313V0.791504L48.6484 1.03369C47.8438 1.23682 47.5625 1.59619 47.5625 2.72119L47.5469 21.5103Z" fill="black"/>
</svg>
