<svg width="105" height="28" viewBox="0 0 105 28" fill="none" xmlns="http://www.w3.org/2000/svg">
<path d="M10.9245 2.58072H13.1827C14.558 2.37811 15.9625 2.55624 17.2436 3.09576C18.8509 4.06276 20.0167 5.61953 20.4923 7.43398C20.8291 8.38482 20.8291 8.38482 21.6413 8.04807H22.2752V0.520554H1.01984V1.84777H1.89145C2.27021 1.84515 2.64475 1.92742 2.98755 2.08853C3.33035 2.24965 3.63269 2.48552 3.87238 2.77881C4.68455 4.08622 4.82322 5.5521 4.82322 13.1787C4.82322 21.2806 4.64494 23.2616 3.87238 24.2718C3.68165 24.5316 3.43472 24.7448 3.15002 24.8958C2.86532 25.0467 2.55021 25.1314 2.22821 25.1434C1.01984 25.3613 1.01984 25.3415 1.01984 25.8764C0.953021 26.0552 0.953021 26.2522 1.01984 26.431H14.4307C14.5195 26.2561 14.5657 26.0627 14.5657 25.8665C14.5657 25.6703 14.5195 25.4769 14.4307 25.3019C14.1059 25.2115 13.7748 25.1453 13.4402 25.1038C13.0783 25.0608 12.7205 24.9879 12.3705 24.8859C11.8694 24.5201 11.4724 24.0298 11.2188 23.4635C10.9652 22.8972 10.8637 22.2745 10.9245 21.657C10.7264 20.3496 10.6273 17.9527 10.6273 15.9718V14.4068H11.4197C12.4069 14.3766 13.3935 14.4833 14.3515 14.7238C14.8104 15.0074 15.201 15.3888 15.4955 15.8408C15.79 16.2928 15.9811 16.8042 16.0551 17.3386L16.2333 17.9527H17.4417V9.17719H16.3324L16.1541 10.029C16.0791 10.5755 15.8769 11.0967 15.5639 11.5508C15.2508 12.005 14.8355 12.3793 14.3515 12.6438C13.8827 12.7833 13.3888 12.8171 12.9054 12.7429H10.6273V10.6035C10.6273 8.38482 10.7462 3.70984 10.8254 2.9769L10.9245 2.58072ZM103.632 18.2894C102.695 16.7824 101.235 15.6747 99.5312 15.1794C98.2251 14.7711 97.0178 14.0966 95.9854 13.1985C95.753 12.9738 95.5792 12.6956 95.4791 12.3883C95.379 12.081 95.3556 11.7539 95.4109 11.4354C95.4124 10.8108 95.6618 10.2124 96.1042 9.77147C96.4041 9.45741 96.7836 9.23071 97.2023 9.11557C97.621 9.00044 98.063 9.00119 98.4813 9.11777C99.3473 9.36457 100.13 9.84102 100.748 10.4966C101.365 11.1523 101.793 11.9626 101.988 12.8419C102.305 13.7333 102.344 13.7333 102.919 13.4956L103.275 13.3569V8.42444L103.018 8.30559C101.067 7.62064 98.9987 7.33763 96.9362 7.4736C95.16 7.5186 93.4646 8.22502 92.182 9.45452C91.6003 9.99906 91.1446 10.6642 90.8469 11.4033C90.5492 12.1424 90.4167 12.9376 90.4586 13.7333C90.4697 14.9499 90.9526 16.1146 91.8056 16.982C92.7482 17.9091 93.9049 18.5895 95.1732 18.963C98.2436 20.1713 99.135 20.9439 99.135 22.3503C99.1482 22.9435 98.9593 23.5234 98.5993 23.995C98.2393 24.4665 97.7297 24.8017 97.1541 24.9454C96.4624 25.0973 95.746 25.0973 95.0543 24.9454C94.1487 24.5939 93.3401 24.0312 92.6958 23.3042C92.0515 22.5772 91.5901 21.7069 91.35 20.7656L91.0925 20.1317H90.7359C90.5655 20.1444 90.3983 20.1845 90.2407 20.2506H90.0426V25.8764H90.3793C91.7176 26.3216 93.0984 26.627 94.4997 26.7876H96.4806C97.3397 26.8507 98.2033 26.7703 99.036 26.5499C100.093 26.3548 101.081 25.8865 101.901 25.1915C102.721 24.4964 103.345 23.5989 103.711 22.5881C103.947 22.0234 104.069 21.4173 104.068 20.8052C104.146 19.9429 103.995 19.0753 103.632 18.2894ZM84.9714 8.04807C83.7844 7.54969 82.5054 7.30793 81.2183 7.33865C79.9313 7.36938 78.6652 7.67189 77.5033 8.22635C76.4112 8.76057 75.4432 9.51787 74.6618 10.4494C73.8805 11.3809 73.3031 12.4658 72.967 13.6343C72.5385 14.9089 72.357 16.2535 72.4322 17.5961C72.418 18.3266 72.4777 19.0567 72.6105 19.7751C72.9303 21.5417 73.7832 23.1681 75.0545 24.4358C76.3257 25.7036 77.9545 26.5519 79.722 26.8668C80.873 27.0119 82.0376 27.0119 83.1886 26.8668C84.3829 26.6563 85.526 26.2193 86.5562 25.5792C87.4083 25.1016 88.1295 24.4212 88.6559 23.5983C88.6222 23.4692 88.5626 23.3483 88.4809 23.2427C88.3992 23.1372 88.297 23.0493 88.1805 22.9842C87.9544 23.0661 87.741 23.1795 87.5466 23.321C86.5613 23.9703 85.3979 24.2958 84.2187 24.252C83.436 24.3049 82.6513 24.1831 81.9216 23.8953C81.1918 23.6075 80.5352 23.161 79.9993 22.5881C79.5848 22.203 79.2426 21.7468 78.989 21.241C78.3735 20.0095 78.0418 18.6557 78.0184 17.2792V16.5066H88.9927V16.1104C89.0169 15.7146 89.0169 15.3177 88.9927 14.9219C88.9888 13.5231 88.6146 12.1504 87.9083 10.9431C87.202 9.73577 86.1888 8.73694 84.9714 8.04807ZM79.4446 14.9021H78.058V13.7333C78.5136 10.7421 79.6427 8.95929 81.0294 8.95929C82.416 8.95929 83.0103 10.7223 83.2678 13.9512V14.8624H82.0793L79.4446 14.9021ZM50.9589 7.39436C50.2745 7.36782 49.594 7.51071 48.978 7.81036C47.6392 8.46055 46.5578 9.54195 45.9076 10.8808L45.6501 11.3562V7.39436H45.551C45.3133 7.39436 37.9839 8.86025 37.7462 8.95929C37.5085 9.05834 37.5877 9.07815 37.5877 9.43471C37.5877 9.79128 37.5877 9.85071 37.7462 9.87052L38.5187 10.029C38.7351 10.0343 38.9474 10.0888 39.1396 10.1883C39.3318 10.2878 39.4989 10.4298 39.6281 10.6035C40.1233 11.2572 40.2223 12.4061 40.2223 17.299C40.3202 19.5017 40.2274 21.7087 39.945 23.8955C39.8785 24.2252 39.7113 24.5261 39.4665 24.7568C39.2217 24.9874 38.9113 25.1364 38.5782 25.1831L37.9047 25.3217H37.6471V25.8764C37.5753 26.0611 37.5753 26.2661 37.6471 26.4509H48.7205V25.8764C48.7589 25.6868 48.7589 25.4915 48.7205 25.3019C48.0538 25.2759 47.3908 25.1897 46.7396 25.0444C46.385 24.8589 46.0948 24.5704 45.9074 24.2168C45.72 23.8631 45.6441 23.4611 45.6897 23.0635C45.5312 21.9145 45.452 18.547 45.4916 15.9718C45.5312 13.3966 45.4916 13.2381 45.7095 13.0598C46.3724 12.5516 47.1926 12.2922 48.0272 12.3269C48.8138 12.344 49.5862 12.5405 50.2854 12.9013C50.5278 13.0359 50.7879 13.136 51.058 13.1985C51.058 13.1985 53.0389 8.40463 53.0389 8.18673C52.7854 7.89216 52.4625 7.66544 52.0993 7.52709C51.7361 7.38874 51.3442 7.34312 50.9589 7.39436ZM37.6075 15.7142C37.5384 14.2987 37.132 12.9201 36.4221 11.6935C35.7123 10.4668 34.7197 9.42748 33.5268 8.66215C32.1093 7.89741 30.5321 7.47575 28.9221 7.43103C27.312 7.3863 25.7139 7.71976 24.2561 8.40463C22.1949 9.49153 20.6387 11.3391 19.9179 13.555C19.1734 16.036 19.1734 18.6809 19.9179 21.1618C20.3082 22.5177 21.0377 23.7517 22.0375 24.7473C23.2826 25.9623 24.8883 26.7407 26.6134 26.9659C27.7208 27.0585 28.834 27.0585 29.9413 26.9659C30.3488 26.9039 30.7523 26.8179 31.1497 26.7084C32.7621 26.2573 34.2127 25.3564 35.3318 24.111C36.4509 22.8657 37.1921 21.3274 37.4689 19.6761C37.6666 18.3651 37.7131 17.0358 37.6075 15.7142ZM29.3669 25.6189C27.3859 26.2131 25.9003 24.2916 25.405 20.2506C25.2232 18.1349 25.2232 16.0075 25.405 13.8918C25.8012 10.6431 26.8115 8.99891 28.3764 8.99891C28.6921 8.97934 29.008 9.03567 29.2975 9.16319C29.587 9.29071 29.8417 9.4857 30.0404 9.73185C31.3676 11.0591 32.0213 13.6937 32.0213 17.6556C32.1861 19.8977 31.8337 22.1478 30.9912 24.2322C30.6192 24.8401 30.0436 25.2964 29.3669 25.5198V25.6189ZM65.0235 7.79055C64.4646 7.71862 63.8987 7.71862 63.3397 7.79055C62.2668 7.78963 61.2061 8.01932 60.2297 8.46406L59.6156 8.72158V4.42298C59.7229 2.97228 59.7229 1.51564 59.6156 0.0649414C59.3779 0.0649414 51.8107 1.51102 51.6919 1.57044C51.6335 1.7167 51.6335 1.8798 51.6919 2.02606C51.6919 2.44205 51.6919 2.42224 52.5833 2.62033C52.8336 2.67646 53.074 2.76995 53.2964 2.89766C53.6831 3.26128 53.9405 3.74122 54.0294 4.2645C54.2549 5.77203 54.3279 7.29845 54.2473 8.82063V26.2131L54.7821 26.332C55.5745 26.5103 57.813 26.8867 58.5459 26.9659C60.0095 27.0823 61.48 27.0823 62.9435 26.9659C64.568 26.8 66.1165 26.1939 67.422 25.213C68.7275 24.2321 69.7406 22.9136 70.3522 21.3995C70.7168 20.4277 70.9693 19.4175 71.1049 18.3885C71.2229 16.9946 71.1763 15.5917 70.9663 14.2087C70.7538 12.6585 70.0695 11.2112 69.0065 10.063C67.9434 8.91487 66.5528 8.12151 65.0235 7.79055ZM59.8335 25.2821C59.8335 25.0246 59.6354 16.3481 59.675 12.8815V10.1677L60.2495 10.029C60.6371 9.97346 61.0306 9.97346 61.4182 10.029C61.8469 9.98541 62.2781 10.0828 62.6464 10.3063C63.3862 10.8169 64.0005 11.4886 64.4431 12.2709C64.8857 13.0532 65.1451 13.9258 65.2018 14.8228C65.3461 16.2653 65.3461 17.7186 65.2018 19.1611C65.0832 21.2576 64.2754 23.2562 62.9039 24.8463C62.5147 25.216 62.0258 25.4639 61.4975 25.5594C61.0977 25.629 60.6889 25.629 60.2891 25.5594C59.9127 25.5594 59.9127 25.4406 59.9127 25.2821H59.8335Z" fill="black"/>
</svg>
