<svg width="53" height="53" viewBox="0 0 53 53" fill="none" xmlns="http://www.w3.org/2000/svg">
<path d="M44.8468 33.4154C51.8234 40.3919 54.92 48.6045 51.7639 51.7607C48.6078 54.9168 40.3952 51.8201 33.4186 44.8436C30.2228 41.6478 27.84 38.1909 26.5016 35.081C25.1631 38.1909 22.7803 41.6478 19.5845 44.8436C12.6079 51.8201 4.39537 54.9168 1.23924 51.7607C-1.9169 48.6045 1.17975 40.3919 8.1563 33.4154C11.3521 30.2196 14.809 27.8368 17.9189 26.4983C14.809 25.1599 11.3521 22.7771 8.1563 19.5813C1.17644 12.6047 -1.92021 4.39213 1.23593 1.23599C4.39207 -1.92015 12.6046 1.17651 19.5812 8.15306C22.777 11.3489 25.1598 14.8057 26.4983 17.9156C27.8367 14.8057 30.2195 11.3489 33.4153 8.15306C40.3919 1.17651 48.6078 -1.92015 51.7639 1.23599C54.92 4.39213 51.8234 12.6047 44.8468 19.5813C41.651 22.7771 38.1942 25.1599 35.0843 26.4983C38.1942 27.8368 41.651 30.2196 44.8468 33.4154Z" fill="#00999E"/>
</svg>
